<svg aria-hidden="true" style="position: absolute; width: 0px; height: 0px; overflow-x: hidden; overflow-y: hidden;" version="1.1" xmlns="http://www.w3.org/2000/svg"><defs><symbol id="light" viewBox="0 0 32 32"><path d="M16 26a2 2 0 0 1 2 2v2a2 2 0 1 1-4 0v-2a2 2 0 0 1 2-2zm0-20a2 2 0 0 1-2-2V2a2 2 0 1 1 4 0v2a2 2 0 0 1-2 2zm14 8a2 2 0 1 1 0 4h-2a2 2 0 1 1 0-4h2zM6 16a2 2 0 0 1-2 2H2a2 2 0 1 1 0-4h2a2 2 0 0 1 2 2zm19.9 7.07 1.413 1.415a2 2 0 1 1-2.828 2.828L23.07 25.9a2 2 0 1 1 2.83-2.83zM6.1 8.93 4.688 7.514a2 2 0 1 1 2.828-2.828L8.93 6.1A2 2 0 1 1 6.1 8.93zm19.8 0a2 2 0 1 1-2.83-2.83l1.415-1.413a2 2 0 1 1 2.828 2.828L25.9 8.93zM6.1 23.07a2 2 0 1 1 2.83 2.83l-1.415 1.413a2 2 0 1 1-2.828-2.828L6.1 23.07z"/><path d="M16 8a8 8 0 1 0 0 16 8 8 0 0 0 0-16zm0 13A5 5 0 1 1 16 11a5 5 0 0 1 0 10z"/></symbol><symbol id="dark" viewBox="0 0 32 32"><path d="M16 8a8 8 0 1 0 0 16 8 8 0 0 0 0-16zm0 13V11c2.757 0 5 2.243 5 5s-2.243 5-5 5zm0 5a2 2 0 0 1 2 2v2a2 2 0 1 1-4 0v-2a2 2 0 0 1 2-2zm0-20a2 2 0 0 1-2-2V2a2 2 0 1 1 4 0v2a2 2 0 0 1-2 2zm14 8a2 2 0 1 1 0 4h-2a2 2 0 1 1 0-4h2zM6 16a2 2 0 0 1-2 2H2a2 2 0 1 1 0-4h2a2 2 0 0 1 2 2zm19.9 7.07 1.413 1.415a2 2 0 1 1-2.828 2.828L23.07 25.9a2 2 0 1 1 2.83-2.83zM6.1 8.93 4.688 7.514a2 2 0 1 1 2.828-2.828L8.93 6.1A2 2 0 1 1 6.1 8.93zm19.8 0a2 2 0 1 1-2.83-2.83l1.415-1.413a2 2 0 1 1 2.828 2.828L25.9 8.93zM6.1 23.07a2 2 0 1 1 2.83 2.83l-1.415 1.413a2 2 0 1 1-2.828-2.828L6.1 23.07z"/></symbol><symbol id="cheveron-down" viewBox="0 0 20 20"><path d="M9.293 12.95l0.707 0.707 5.657-5.657-1.414-1.414-4.243 4.242-4.243-4.242-1.414 1.414z"></path></symbol></defs></svg>